<svg xmlns="http://www.w3.org/2000/svg" width="124" height="126.572" viewBox="0 0 124 126.572">
  <g id="Group_4" data-name="Group 4" transform="translate(-440 -384.5)">
    <g id="Group_2" data-name="Group 2" transform="translate(467.543 384.5)">
      <path id="Path_1" data-name="Path 1" d="M1562.921,644.11s-6.951,3.758-10.293,6.585-6.747,9.638-9.574,20.883-10.41,26.281-14.586,30.136-9.189,7.711-14.779,2.892-1.285-10.731.707-12.08,10.731-6.618,10.988-11.309-9.831-9.638-13.044-10.667-18.056-3.534-20.755-10.8,4.234-11.463,10.788-10.628,12.087,6.451,13.308,7.222,5.878,4.944,11.5,4.305,13.729-12.218,21.462-15.743A19.088,19.088,0,0,1,1562.921,644.11Z" transform="translate(-1490.986 -633.068)" fill="#fff"/>
      <circle id="Ellipse_1" data-name="Ellipse 1" cx="9.035" cy="9.035" r="9.035" transform="translate(25.554 4.235)" fill="#fff"/>
      <circle id="Ellipse_2" data-name="Ellipse 2" cx="3.529" cy="3.529" r="3.529" transform="translate(45.6 0)" fill="#fff"/>
      <circle id="Ellipse_3" data-name="Ellipse 3" cx="4.376" cy="4.376" r="4.376" transform="translate(60 31.058)" fill="#fff"/>
      <circle id="Ellipse_4" data-name="Ellipse 4" cx="4.517" cy="4.517" r="4.517" transform="translate(14.966 42.634)" fill="#fff"/>
    </g>
    <text id="LoveUs" transform="translate(440 488.875)" fill="#fff" font-size="34" font-family="Poppins-Bold, Poppins" font-weight="700"><tspan x="0" y="0">LoveUs</tspan></text>
    <text id="Non-Profite" transform="translate(462.382 508.071)" fill="#fff" font-size="13" font-family="WorkSans-Regular, Work Sans"><tspan x="0" y="0">Non-Profite</tspan></text>
  </g>
</svg>
